<svg id="Layer_1" data-name="Layer 1" xmlns="http://www.w3.org/2000/svg" viewBox="0 0 855.6 287.76"><defs><style>.cls-1{fill:#00936b;}</style></defs><title>ultrasecreto</title><path class="cls-1" d="M504.5,309.35c-.61.45-2.4,2.83-4.38,3-16.76,1.5-33.56,2.59-50.93,3.85l2.87-4.73c-5-1.71-10.69,11.25-14.76-1.87-.28,3-.47,5-.7,7.4-21.48,1.67-42.8,3.37-64.14,5-22.61,1.69-45.23,3.23-67.84,4.89q-76.56,5.64-153.14,11.32c-17.28,1.26-29.19-13.41-26.56-33.09.49-3.67,2.94-7.08,4.62-10.92l-6,1.67c-.34-5.31-1.13-10.56-.77-15.72.14-2.08,2.67-4.09,4.34-5.94a53.42,53.42,0,0,1,4.65-4.08c-2.48-.29-5-.63-7.43-.82-.63,0-1.3.38-2.68.82-1.82-25.35-3.61-50.28-5.44-75.87l5.66.43c.23-.64.66-1.32.51-1.48-12.22-13.31-7.29-30.35-9.65-45.73-1.11-7.26-.25-15,.79-22.37,1.15-8.17,10.7-15.2,20.75-16.16,6.27-.6,12.58-.79,19.47-1.2.21,2.2.4,4.26.6,6.32l1.26.34c.89-2.26,1.78-4.52,2.75-7L379.91,91l1.2,7.18.8,0c.37-2.28.75-4.56,1.24-7.55l122.85-9c.3,4.14.5,6.94.8,11,3.76-4.6.42-13,9.27-11.65,4.3.64,8.75.31,13.14.42l0,2.1c1.38-1.24,2.66-3.4,4.15-3.56,12.19-1.31,24.41-2.25,38.11-3.42l-3.28,4.66c1,0,2.27.19,2.34,0,1.46-4.22,4.64-4.79,8.65-5.08q73.32-5.25,146.61-10.85c10.38-.79,5.34,7.12,7.75,12.29-19,1.65-37.15,3.3-55.3,4.75-19.14,1.53-38.3,2.87-57.45,4.27-7.15.53-14.45,2.12-21.41,1.18-5.88-.78-11.07.4-16.61.92-2.63.25-5.58-2.91-8.48-4.58-.12.46-.72,2.75-1.3,5-22.42,5.32-190.89,15.53-195.84,11.59-3.46,4.35-7.32,6.16-12.38,1.79-1.68-1.46-4.4-2.51-5,2.2-.13,1-6.74,1.54-10.4,1.83-26.45,2-52.91,4.08-79.39,5.83-3.68.24-7.47-1.53-11.19-1.47-2.2,0-4.32,2.52-6.57,2.7-28.53,2.28-57,5-85.64,6.09-10.51.38-20.68,2.85-31.21,2.76-6.9-.06-11,4.81-11,12,.07,6.27.72,12.54,1.2,20.22l-1.74-5.4-.69.17c1,8,5.23,17.77,2.13,23.65-5.32,10.06,5.33,15.55,3.14,24.46-1.75,7.12,1.32,15.39,2,23.17.76,8.35,1.23,16.74,1.87,25.1.68,8.82,1.47,17.63,2.1,26.45s1.16,17.62,1.75,26.92l-7.07,2.46c.55,1.88,1.1,3.77,1.75,6l5.8-1.83c.33,2.7.59,5.19.95,7.67,1.18,8.16,5.72,11.85,14.06,11.26,16.38-1.16,32.75-2.4,49.12-3.61q158.31-11.65,316.64-23.32,108.1-8,216.2-16.17c1.25-.1,2.51,0,5,0l-5.46,3.43c.08.57.15,1.13.23,1.7,2.09-.15,5.64.36,6-.55,3.31-7.37,10-5.54,15.58-6,25.85-2.13,51.71-4,77.59-5.79,30.55-2.1,61.13-3.95,91.69-6,7-.48,14-1.34,21-2.34s10.62-5.74,10.18-13.54c-.89-15.9-2.14-31.77-3.32-47.64-3.19-42.91-6.41-85.81-9.68-129.38l5,.77c0-.81.16-1.21.06-1.27-5.73-3.75-11.1-9.54-17.32-10.69-8.08-1.5-16.84.95-25.33,1.16-3.23.08-6.5-1.32-11.5-2.44-3,3-8.05,4.12-15,3-6.73-1.05-14,2.17-21.14,2.74-29.92,2.41-59.87,4.54-89.81,6.77L735.18,78c-.39-4.29-.73-8.17-1.17-13.14,9.56-.72,18.77-1.41,28-2.13,10-.78,20-1.64,30-2.38q67.4-4.93,134.78-9.8C942.64,49.45,954,59,955.05,74.34c.13,1.93-1.16,4-2,6.67l2.13.82L950.28,85c9.9,3.07,5.58,10.65,6.61,16.05,1.21,6.42,1.15,13.07,1.63,19.62s1.23,13.11,1.33,19.66c0,2.88-1.26,5.77-2.12,9.39,7.41,2.27,1.78,6.31,0,9,1.67,2.35,3.56,3.86,3.89,5.66,1.46,8-1.23,16.26,1.72,24.21a4.47,4.47,0,0,1-1.1,4c-7.35,5.46-2.4,13.25-5.24,19.49l2.52.52L962.22,196c4.31,6.17,3.75,18-.09,20.2,2,13.56,4.46,26.64,5.59,39.83.75,8.91-3.8,15.79-12,20.27-5.82,3.19-10.95,5.81-14.6-2.61-.35-.81-2.66-.76-5.44-1.45,1.7,3.26,2.62,5,3.56,6.87a9.52,9.52,0,0,1-1.59.78c-2.9-3.72-5.68,0-8.42.25-12.81,1-25.58,2.64-38.39,3.6q-76.73,5.76-153.48,11.17c-3.36.24-6.81-.81-10.5-1.29-3,.84-6.44,2.46-10,2.75-31.22,2.51-62.45,4.78-94,7.14-.28-1.74-.51-3.23-.54-3.45l-11,5.67V299c-.62.13-.94.09-1.06.23-10.83,12.39-25.72,5.09-38.56,7.55a184.76,184.76,0,0,1-41.28,2.89c-5.13-.19-9.34,2.1-14.06,1.72C513,311.06,509.63,310.24,504.5,309.35Z" transform="translate(-112.2 -50.49)"/><path class="cls-1" d="M888,72c9.58-.7,19.15-1.45,28.73-2.09,12.64-.84,21,6.19,21.92,18.69q5.53,74.46,10.89,148.93c1.14,16.22-5.41,23-21.71,24.16Q800,271.08,672.29,280.65q-106.21,7.86-212.43,15.61-141.75,10.46-283.48,21c-28.81,2.17-33.13-1.71-35.09-30.82-3.08-45.89-6.6-91.74-10-137.59-1-12.71,5.63-21.3,18.17-22.26q90.32-6.85,180.66-13.46Q440.44,105,550.8,96.84q96.39-7.09,192.78-14.16Q815.78,77.37,888,72ZM136.41,154.79h-.13q5.31,70.68,10.61,141.36c1,13.62,5.72,18.15,19.13,17.22q56.34-3.88,112.66-8.11,189.38-14,378.75-28.1,136.07-10.07,272.15-20c11-.81,15.79-6.19,15.52-17.19-.05-2.27-.23-4.54-.39-6.81q-5.21-70.31-10.37-140.62c-1.05-14.44-5.82-19-20.12-17.92q-85.82,6.22-171.61,12.54Q623.15,96,503.71,104.82q-117.94,8.69-235.88,17.31-58.59,4.32-117.17,8.81c-10.53.81-15.23,6.42-14.71,17.05C136.06,150.26,136.25,152.52,136.41,154.79Z" transform="translate(-112.2 -50.49)"/><path class="cls-1" d="M297.38,138.71c7.79-.54,14.55-1.46,21.27-1.19,1.89.07,4.56,3.31,5.34,5.61,7,20.82,13.61,41.75,20.38,62.64a18.39,18.39,0,0,0,4.41,7.94c-1.81-25.7-3.62-51.41-5.5-78.23l16.9-1.42c.46,5.42.91,10.13,1.26,14.86,2.47,33.47,5,66.93,7.27,100.42.35,5.23-.74,10.55-1.16,15.83a3.22,3.22,0,0,0,0,.76q.8,4.15,1.6,8.31c-5.46.43-11,1.46-16.33.93C351,275,349,271,348.19,268.4c-9-27.09-17.7-54.24-26.51-81.37a8.76,8.76,0,0,0-3.43-5.11c2.27,31.56,4.55,63.11,6.88,95.52l-17.38,1.62C304.29,232.24,300.86,185.87,297.38,138.71Z" transform="translate(-112.2 -50.49)"/><path class="cls-1" d="M665.36,191.15c-1.66-26.1-3.32-52.21-5-79.09l16.69-1.2q5.19,70.17,10.24,138.6a11.52,11.52,0,0,1-2.18,1.32c-17,3.46-17.27,3.36-22.57-12.88-8.81-27-17.53-54-27.78-80.78,2.33,32,4.66,64.09,7.07,97.29l-17.47,1.3c-2.16-29.81-4.28-59-6.41-88.27l3.06-.21c-6.14-16.62-4.82-34-7.19-51.69,8-.69,15-1.75,22-1.58,1.74.05,4.12,3.8,5,6.27,7.53,22.5,14.77,45.09,22.11,67.66.38,1.14.86,2.24,1.29,3.36Z" transform="translate(-112.2 -50.49)"/><path class="cls-1" d="M483.25,265.94c-3.57-46.95-7.08-93.21-10.65-140.32,13.64-.73,26.19-2.18,38.69-1.86,13.92.34,22,11.27,22.78,25.75.83,15.3,3.57,30.48,5,45.75,1.2,12.82,2.3,25.7,2.4,38.55.13,18.85-9.05,28.5-27.72,30.15C503.75,264.84,493.72,265.27,483.25,265.94Zm17.7-22c17.29,2.4,21.85-1.47,20.82-17.66q-2.14-33.6-4.9-67.14c-1.26-15.58-6.61-18.89-23.09-14C496.17,178,498.57,211,501,243.92Z" transform="translate(-112.2 -50.49)"/><path class="cls-1" d="M290.36,233.21q.93,8,1.84,15.93c2.09,18.38-8.26,32.13-26,34.55-17.24,2.34-31.67-7.9-33.55-26-2.94-28.35-4.67-56.84-6.3-85.3-.31-5.38-1.58-12.22,5.83-15.69,1.37-.64.19-5.62,1.66-7.34,13.53-15.88,42.46-10.87,49.23,8.74,2.42,7,3,14.72,3.9,22.18,1,8.76,1.57,17.6,2.23,26.4s1.19,17.63,1.78,26.45Zm-19.19-4.16h.25q-2.24-28.15-4.51-56.31c-.17-2-.14-4.52-1.3-5.81-2.5-2.79-5.74-6.88-8.64-6.85-3.45.05-7.27,3.41-10.16,6.15-3.85,3.65-1.2,8.46-.88,12.76,1.82,24.42,3.63,48.84,5.64,73.25.65,8,4.81,12.24,10.9,12.06,6.55-.2,10.4-5,10.15-13.32C272.41,243.65,271.67,236.36,271.17,229.05Z" transform="translate(-112.2 -50.49)"/><path class="cls-1" d="M814.05,241.6l-17.44,1.29c3.25-47.35,6.45-94.06,9.72-141.67L835,99.28c10.36,46.3,20.5,91.68,31,138.38-6.06.43-11.66,1-17.26,1-1.12,0-2.68-1.9-3.26-3.27-.89-2.05-1.09-4.39-1.59-6.6-3.44-15.36-3.44-15.36-19.26-13.67-2.73.29-5.46.51-8.56.8-.35,4.25-.72,8.48-1,12.72C814.68,232.69,814.4,236.69,814.05,241.6Zm8.69-112.39-1.77,0c-1.33,22.24-2.66,44.47-4.05,67.64l19.88-1.57C831.92,172.4,827.33,150.8,822.74,129.21Z" transform="translate(-112.2 -50.49)"/><path class="cls-1" d="M217,191.72l-18.88,1.72c-.6-5.92-.95-11.35-1.73-16.72-1.22-8.32-4.92-11.89-11.36-11.43s-9.92,4.51-9.45,12.86c1.11,19.88,2.66,39.73,4,59.59.46,6.53.49,13.13,1.48,19.57,1.46,9.55,5.18,13,11.92,12.19,6.26-.73,9.35-5.32,9.15-14.13-.16-6.55-.65-13.08-1-20.45,5.06-.48,10-1.22,14.88-1.25,1.22,0,3.46,2.22,3.53,3.52.49,9,1.43,18.2.53,27.15-1.59,15.85-12,24.43-28.22,24.72s-26.83-8-28.91-23.92c-2.33-18-3.55-36.1-5-54.18-.95-12.33-2.17-24.72-1.82-37,.54-19.06,12.88-29.62,31.72-28.43,12.11.77,20.73,7.07,24.23,18.43C214.75,172.47,215.3,181.66,217,191.72Z" transform="translate(-112.2 -50.49)"/><path class="cls-1" d="M570.86,177.84l27.54-1.46c.42,6.41.8,12.28,1.24,19.12l-27.09,2.44c.86,12.83,1.5,25.15,2.75,37.4.15,1.44,3.73,3.62,5.68,3.58,9.29-.2,18.57-1.06,28.91-1.75.51,6.43,1,12.31,1.51,19.34l-54.06,4.17c-3.47-47.07-6.88-93.25-10.36-140.33l53.93-4.08c.53,6.49,1,12.57,1.59,19.53L568,138.63C569,152.1,569.9,164.76,570.86,177.84Z" transform="translate(-112.2 -50.49)"/><path class="cls-1" d="M399.47,193.73l26-1.36c.32,6.18.63,12.07,1,18.9l-25.34,2.34c1.38,19.65,2.7,38.45,4.05,57.74L386,273c-3.52-46.27-7.05-92.78-10.64-140l52.48-3.75c.55,6.89,1,12.82,1.55,19.34l-32.72,2.74C397.56,165.35,398.49,179.21,399.47,193.73Z" transform="translate(-112.2 -50.49)"/><path class="cls-1" d="M736.63,247.16l-19.36,1.66c-3-40.25-6-79.91-9-120.42l-20.75,1.09c-.57-6.41-1.12-12.52-1.74-19.4l61.46-4.57c.52,6.73,1,12.69,1.42,18.64l-20.62,3C730.87,166.69,733.71,206.31,736.63,247.16Z" transform="translate(-112.2 -50.49)"/><path class="cls-1" d="M894,215.87l32.78-1.82c.52,6.22,1,12.33,1.61,19.37l-53.13,3.4c-.44-15.76-.63-31.37-1.42-46.94-.34-6.75-2.33-13.41-2.89-20.16-1.76-21.38-3-42.8-4.87-64.16-.57-6.58.79-10.14,8.2-9.47,3.19.29,6.45-.28,10.74-.52C888,135.67,890.94,175.31,894,215.87Z" transform="translate(-112.2 -50.49)"/><path class="cls-1" d="M786.64,243.63l-19.51,1.51c-3.47-46.9-6.88-93.06-10.37-140.25l19.53-1.26C779.75,150.44,783.15,196.36,786.64,243.63Z" transform="translate(-112.2 -50.49)"/><path class="cls-1" d="M438.22,128.34l19.08-.91c3.59,46.85,7.1,92.63,10.69,139.49-5.6.49-10.57,1.63-15.31,1-1.9-.25-4.53-4.3-4.72-6.78-2.95-37-5.55-74-8.22-111C439.23,143.12,438.76,136.14,438.22,128.34Z" transform="translate(-112.2 -50.49)"/></svg>