<svg id="Layer_1" data-name="Layer 1" xmlns="http://www.w3.org/2000/svg" viewBox="0 0 728.1 147.97"><defs><style>.cls-1{fill:#00936b;}</style></defs><title>ultrasecreto</title><path class="cls-1" d="M349.82,146.7c-.54.24-2.16,1.59-3.87,1.64-14.41.43-28.83.63-43.76.9,1.09-1.12,1.75-1.8,2.64-2.7-4.22-1.14-9.59,6.31-12.56-1.5-.36,1.75-.6,2.94-.89,4.33-18.45.4-36.79.83-55.12,1.19-19.42.38-38.85.68-58.28,1.05q-65.79,1.24-131.57,2.53C31.56,154.42,21.94,145.49,25,134c.56-2.14,2.79-4.08,4.38-6.29l-5.21.82c-.08-3.13-.55-6.22-.05-9.24.21-1.22,2.46-2.33,4-3.37a46.52,46.52,0,0,1,4.14-2.27c-2.11-.24-4.21-.5-6.33-.68a11.74,11.74,0,0,0-2.33.41C23,98.46,22.4,83.79,21.83,68.72l4.83.4c.23-.37.62-.75.5-.85-9.95-8.14-5.05-18-6.47-27.09-.67-4.29.37-8.81,1.55-13.11,1.3-4.76,9.76-8.63,18.4-8.92C46,19,51.44,19,57.36,19l.26,3.72,1.07.24,2.63-4,190.37-3.68c.31,1.77.53,3,.75,4.25l.68,0c.41-1.32.82-2.65,1.35-4.39l105.55-2c.09,2.44.16,4.08.25,6.5,3.41-2.59.87-7.59,8.4-6.58,3.66.49,7.48.42,11.23.6l-.09,1.23c1.23-.69,2.4-1.93,3.69-2,10.48-.44,21-.66,32.77-1l-3,2.65a9.18,9.18,0,0,0,2,0c1.41-2.43,4.16-2.68,7.61-2.74q63-1.11,126-2.44c8.92-.18,4.29,4.33,6.15,7.43-16.35.45-31.94.93-47.53,1.3-16.46.38-32.91.65-49.37,1-6.14.12-12.45.85-18.37.12-5-.62-9.5-.07-14.26.09-2.27.08-4.67-1.85-7.09-2.91l-1.31,2.89c-19.4,2.53-164.06,4-168.14,1.55-3.14,2.46-6.51,3.42-10.67.72-1.39-.9-3.68-1.59-4.35,1.16-.15.6-5.83.72-9,.79-22.74.49-45.47,1-68.21,1.29-3.16.05-6.34-1.09-9.53-1.16-1.88,0-3.8,1.36-5.73,1.41-24.52.57-49,1.43-73.57,1.27-9-.06-17.82,1.12-26.84.79-5.9-.22-9.64,2.52-9.86,6.75-.19,3.68.12,7.38.24,11.9l-1.28-3.22-.59.08c.5,4.73,3.77,10.57.89,13.93-4.94,5.77,4,9.27,1.73,14.45-1.78,4.13.53,9.06.83,13.64.33,4.93.4,9.86.62,14.79.24,5.19.57,10.38.77,15.57s.29,10.37.44,15.84l-6.15,1.26c.39,1.12.79,2.24,1.26,3.58l5-.91c.18,1.59.31,3.06.52,4.53.69,4.82,4.44,7.1,11.6,7q21.11-.36,42.2-.8,136-2.59,272.05-5.19,92.88-1.8,185.77-3.69c1.07,0,2.15.07,4.3.13l-4.81,1.87c0,.34.09.67.13,1,1.8,0,4.82.35,5.21-.17,3.12-4.23,8.8-3,13.57-3.09q33.32-.84,66.66-1.32c26.25-.41,52.51-.67,78.75-1.08,6-.1,12.08-.41,18.1-.81s9.32-3.09,9.25-7.67c-.15-9.35-.59-18.7-1-28-1-25.26-2.14-50.52-3.22-76.18l4.25.59c.07-.47.19-.71.1-.75-4.76-2.35-9.12-5.89-14.4-6.73-6.87-1.1-14.47.1-21.74,0-2.77,0-5.52-.95-9.76-1.75-2.7,1.66-7,2.21-13,1.38-5.73-.8-12.1.9-18.21,1-25.72.62-51.45,1.06-77.17,1.56l-27.79.55c-.16-2.53-.31-4.82-.49-7.75,8.22-.17,16.13-.32,24-.5,8.61-.19,17.21-.42,25.82-.59q57.88-1.08,115.78-2.13c13.61-.24,23,5.67,23.26,14.7,0,1.14-1.14,2.29-2,3.86l1.8.54L740.33,27c8.35,2.07,4.36,6.41,5,9.6.79,3.8.48,7.7.64,11.56s.54,7.72.36,11.57c-.08,1.69-1.3,3.35-2.18,5.45,6.25,1.53,1.28,3.75-.39,5.29,1.34,1.43,2.9,2.37,3.11,3.43.94,4.72-1.69,9.51.53,14.25a2.19,2.19,0,0,1-1.11,2.35c-6.5,3-2.57,7.71-5.25,11.29l2.15.38c1-3.27,2-6.53,3-9.71,3.46,3.73,2.51,10.64-.86,11.84,1.16,8,2.78,15.76,3.22,23.53.3,5.25-3.87,9.16-11,11.57-5.11,1.72-9.59,3.12-12.4-1.92-.26-.48-2.24-.52-4.59-1l2.78,4.13a12.85,12.85,0,0,1-1.4.42c-2.33-2.26-4.86-.14-7.22-.09-11,.26-22,.87-33,1.09q-65.93,1.32-131.86,2.43c-2.89.05-5.8-.65-8.94-1-2.57.42-5.61,1.28-8.7,1.35-26.83.63-53.66,1.13-80.79,1.67-.17-1-.31-1.91-.33-2l-9.67,3,.27-3.95a4.36,4.36,0,0,0-.92.1c-9.76,7-22.23,2.3-33.32,3.4a231.81,231.81,0,0,1-35.46.59c-4.39-.25-8.08,1-12.1.63C357,147.93,354.18,147.35,349.82,146.7Z" transform="translate(-20.48 -6.18)"/><path class="cls-1" d="M687.47,17.71c8.23-.15,16.46-.33,24.69-.45,10.85-.16,17.72,4.2,18,11.55,1.22,29.23,2.44,58.46,3.49,87.69.35,9.55-5.52,13.33-19.53,13.59q-109.77,2.08-219.53,4.27-91.24,1.75-182.51,3.45-121.79,2.34-243.57,4.73c-24.75.5-28.3-1.89-28.83-19-.84-27-2.06-54-3.22-81C36.17,35,42.14,30.16,52.92,29.93q77.61-1.59,155.22-3.05l189.65-3.65L563.42,20.1ZM40.68,46.12h-.11q1.78,41.63,3.55,83.24c.34,8,4.19,10.8,15.71,10.62q48.39-.78,96.79-1.74,162.7-3.15,325.41-6.32,116.93-2.26,233.83-4.44c9.41-.18,13.76-3.21,14-9.67,0-1.34,0-2.67-.07-4-1.13-27.6-2.31-55.2-3.37-82.8-.33-8.5-4.24-11.27-16.53-11Q636.14,21.3,562.41,22.7q-102.63,2-205.25,3.95Q255.82,28.59,154.5,30.48q-50.34,1-100.68,2c-9,.2-13.29,3.37-13.26,9.61C40.57,43.45,40.64,44.78,40.68,46.12Z" transform="translate(-20.48 -6.18)"/><path class="cls-1" d="M179.15,41c6.7-.11,12.52-.46,18.26-.13,1.62.1,3.78,2.07,4.35,3.44,5.16,12.4,10,24.87,15,37.31a10,10,0,0,0,3.46,4.77c-.54-15.13-1.08-30.26-1.64-46L233.11,40c.18,3.19.38,6,.49,8.75.81,19.71,1.68,39.41,2.29,59.12.1,3.08-1,6.18-1.61,9.26a1.15,1.15,0,0,0,0,.45c.34,1.64.69,3.28,1,4.92-4.69.1-9.45.56-14,.1-1.51-.15-3-2.55-3.68-4.09-6.61-16.13-13-32.3-19.51-48.46a5.24,5.24,0,0,0-2.74-3.09c.71,18.58,1.42,37.16,2.15,56.24l-14.95.48C181.4,96.07,180.28,68.77,179.15,41Z" transform="translate(-20.48 -6.18)"/><path class="cls-1" d="M492.19,81.65c-.4-15.36-.8-30.73-1.21-46.55l14.33-.25q1.69,41.31,3.35,81.6a11.49,11.49,0,0,1-1.92.72c-14.68,1.58-14.92,1.51-18.83-8.16C481.42,92.94,475,76.86,467.29,60.86c.74,18.87,1.48,37.73,2.24,57.28l-15,.29c-.68-17.55-1.35-34.7-2-52l2.63,0c-4.61-9.91-2.8-20.09-4.13-30.52,6.91-.19,12.95-.62,18.91-.34,1.49.08,3.38,2.34,4,3.81,5.56,13.41,10.88,26.86,16.29,40.3.27.68.64,1.34,1,2Z" transform="translate(-20.48 -6.18)"/><path class="cls-1" d="M333.32,120.65C332.11,93,330.92,65.77,329.7,38c11.71-.06,22.51-.57,33.21-.05,11.9.58,18.39,7.21,18.5,15.72.11,9,1.85,18,2.48,27a182.74,182.74,0,0,1,.54,22.68c-.63,11.07-8.87,16.48-24.92,17C350.93,120.56,342.32,120.54,333.32,120.65Zm16-12.44c14.71,1.87,18.76-.28,18.51-9.81q-.53-19.77-1.56-39.53c-.47-9.18-4.92-11.26-19.22-8.83C347.83,69.38,348.59,88.84,349.35,108.21Z" transform="translate(-20.48 -6.18)"/><path class="cls-1" d="M169.44,96.27q.48,4.7.95,9.39c1.07,10.85-8.33,18.64-23.62,19.58-14.85.91-26.8-5.48-27.7-16.15-1.42-16.71-1.78-33.48-2.06-50.22-.05-3.17-.88-7.22,5.61-9.06,1.2-.33.38-3.29,1.7-4.26,12.21-8.95,36.79-5.23,41.82,6.45,1.8,4.18,2,8.72,2.47,13.12.56,5.17.66,10.37.87,15.56s.33,10.37.49,15.56Zm-16.27-3h.21c-.54-11-1.07-22.11-1.66-33.16-.06-1.18.06-2.66-.88-3.45-2-1.7-4.65-4.19-7.13-4.25-3-.06-6.36,1.81-8.94,3.34-3.44,2-1.36,4.93-1.25,7.46.6,14.38,1.19,28.76,2,43.14.24,4.69,3.64,7.31,8.86,7.37,5.62.06,9.1-2.63,9.22-7.55C153.66,101.91,153.31,97.61,153.17,93.31Z" transform="translate(-20.48 -6.18)"/><path class="cls-1" d="M617.54,115.25l-15,.28c4.63-27.69,9.21-55,13.87-82.87l24.64-.36c7,27.44,14,54.34,21.08,82-5.2.09-10,.28-14.82.15a4.13,4.13,0,0,1-2.66-2,15.48,15.48,0,0,1-1.1-3.92c-2.35-9.1-2.35-9.1-16-8.54-2.35.1-4.7.16-7.36.24-.47,2.49-1,5-1.4,7.44S618,112.37,617.54,115.25Zm11.84-65.72-1.51,0c-2,13-4,26-6.12,39.59l17.08-.39C635.56,75.12,632.47,62.32,629.38,49.53Z" transform="translate(-20.48 -6.18)"/><path class="cls-1" d="M108.23,70,92,70.45c-.29-3.49-.38-6.68-.84-9.86-.71-4.91-3.74-7.1-9.28-7s-8.66,2.38-8.59,7.3C73.46,72.57,74,84.26,74.42,96c.13,3.85-.1,7.72.5,11.53.88,5.64,3.93,7.75,9.73,7.47,5.39-.26,8.22-2.87,8.38-8,.13-3.84,0-7.69-.08-12,4.36-.15,8.59-.45,12.8-.34,1,0,2.87,1.4,2.88,2.16.07,5.32.51,10.72-.61,16-2,9.26-11.25,14-25.13,13.75S60.22,121,59.07,111.58C57.78,101,57.44,90.31,57,79.66c-.33-7.26-.9-14.56-.11-21.79C58.05,46.71,69,40.84,85.12,42c10.34.78,17.47,4.71,20,11.47C107.07,58.6,107.19,64,108.23,70Z" transform="translate(-20.48 -6.18)"/><path class="cls-1" d="M411.79,71.31l23.64-.13c.11,3.78.21,7.23.32,11.26l-23.29.7c.23,7.56.29,14.8.89,22,.07.84,3,2.22,4.72,2.25,8,.13,15.95-.12,24.83-.26.17,3.8.34,7.26.53,11.4l-46.45,1c-1.14-27.72-2.25-54.91-3.38-82.63l46.34-1c.19,3.82.38,7.4.6,11.5l-29.66.74C411.2,56.15,411.49,63.6,411.79,71.31Z" transform="translate(-20.48 -6.18)"/><path class="cls-1" d="M264.41,76l22.34-.1c0,3.63.06,7.1.1,11.12l-21.79.69c.41,11.57.8,22.64,1.2,34l-16.53.44c-1.2-27.25-2.4-54.63-3.62-82.46l45.08-.79c.21,4.06.38,7.55.57,11.39L263.63,51C263.89,59.32,264.15,67.48,264.41,76Z" transform="translate(-20.48 -6.18)"/><path class="cls-1" d="M551,116.43l-16.64.46c-1-23.7-2-47-3-70.91l-17.81.08c-.24-3.77-.47-7.37-.73-11.42l52.8-1c.18,4,.33,7.47.49,11l-17.78,1.2C549.25,69.06,550.13,92.38,551,116.43Z" transform="translate(-20.48 -6.18)"/><path class="cls-1" d="M687,102.29l28.15-.19c.19,3.67.39,7.26.62,11.42l-45.64.57c.24-9.27.7-18.43.63-27.59,0-4-1.47-7.93-1.69-11.91-.67-12.59-.91-25.19-1.66-37.78-.22-3.88,1.07-5.93,7.39-5.33,2.72.25,5.54,0,9.23,0C685,55.07,686,78.41,687,102.29Z" transform="translate(-20.48 -6.18)"/><path class="cls-1" d="M594,115.7l-16.76.36c-1.14-27.61-2.25-54.79-3.39-82.58l16.77-.21C591.74,60.83,592.85,87.87,594,115.7Z" transform="translate(-20.48 -6.18)"/><path class="cls-1" d="M300.16,38.7l16.37,0c1.24,27.59,2.45,54.55,3.69,82.15-4.81.13-9.11.67-13.15.17-1.62-.2-3.71-2.64-3.78-4.1-1.07-21.8-1.85-43.59-2.69-65.39C300.44,47.39,300.32,43.29,300.16,38.7Z" transform="translate(-20.48 -6.18)"/></svg>