<svg id="Layer_1" data-name="Layer 1" xmlns="http://www.w3.org/2000/svg" viewBox="0 0 769.38 279.17"><defs><style>.cls-1{fill:#00936b;}</style></defs><title>ultrasecreto</title><path class="cls-1" d="M359.78,220.26c-.43.31-1.69,2-3.08,2.11-11.76,1-23.54,1.82-35.73,2.71.82-1.37,1.33-2.21,2-3.33-3.52-1.2-7.5,7.9-10.35-1.31-.2,2.1-.34,3.53-.5,5.19-15.07,1.17-30,2.37-45,3.49-15.86,1.18-31.73,2.26-47.6,3.43q-53.73,4-107.45,7.94c-12.13.89-20.49-9.41-18.64-23.22.34-2.58,2.06-5,3.24-7.66l-4.22,1.17c-.24-3.73-.79-7.41-.54-11,.1-1.46,1.88-2.87,3-4.17a37.25,37.25,0,0,1,3.26-2.86c-1.74-.2-3.47-.44-5.21-.58a7.2,7.2,0,0,0-1.89.58c-1.27-17.79-2.52-35.28-3.81-53.24l4,.3c.16-.45.46-.92.36-1-8.58-9.34-5.11-21.3-6.77-32.09-.78-5.1-.18-10.53.55-15.7.81-5.73,7.51-10.66,14.56-11.34,4.4-.42,8.83-.56,13.66-.84l.42,4.43.89.24c.62-1.59,1.25-3.17,1.93-4.91L272.36,67c.35,2.1.59,3.57.84,5l.56,0c.26-1.6.52-3.2.87-5.3l86.2-6.3c.21,2.91.35,4.87.56,7.75,2.64-3.23.29-9.1,6.5-8.17a74.44,74.44,0,0,0,9.22.29v1.47c1-.86,1.87-2.38,2.91-2.5,8.55-.91,17.13-1.57,26.75-2.39-1.21,1.7-1.69,2.39-2.31,3.27.72,0,1.6.13,1.65,0,1-3,3.25-3.36,6.07-3.56Q463.62,53,515,49c7.29-.56,3.75,5,5.44,8.62C507.13,58.8,494.41,60,481.67,61c-13.43,1.08-26.87,2-40.31,3-5,.37-10.14,1.48-15,.83-4.12-.55-7.77.28-11.66.64-1.84.18-3.91-2-5.95-3.21-.08.32-.5,1.93-.91,3.5-15.73,3.74-133.95,10.91-137.42,8.14-2.43,3.05-5.13,4.32-8.68,1.25-1.18-1-3.09-1.75-3.49,1.55-.09.72-4.73,1.08-7.3,1.28-18.56,1.44-37.13,2.86-55.7,4.09-2.59.18-5.25-1.07-7.86-1-1.54,0-3,1.77-4.61,1.9-20,1.6-40,3.54-60.09,4.27-7.37.26-14.51,2-21.9,1.94-4.85,0-7.75,3.37-7.7,8.43.05,4.4.5,8.79.84,14.18L92.69,108l-.48.13c.67,5.62,3.67,12.47,1.49,16.58-3.73,7.07,3.75,10.92,2.21,17.17-1.23,5,.92,10.8,1.42,16.26.53,5.86.86,11.74,1.31,17.61.48,6.19,1,12.37,1.48,18.56s.81,12.37,1.23,18.89l-5,1.73c.39,1.32.77,2.64,1.23,4.23l4.07-1.29c.23,1.9.41,3.65.67,5.39.83,5.73,4,8.31,9.86,7.9,11.49-.82,23-1.69,34.47-2.53q111.09-8.19,222.18-16.37,75.87-5.61,151.71-11.35c.88-.06,1.76,0,3.53,0l-3.83,2.41c.05.39.11.79.16,1.19,1.47-.11,4,.25,4.25-.39,2.32-5.17,7-3.88,10.93-4.2,18.13-1.5,36.28-2.81,54.44-4.06,21.44-1.48,42.9-2.77,64.34-4.24,4.93-.34,9.86-.94,14.75-1.64s7.46-4,7.15-9.51c-.63-11.15-1.51-22.29-2.33-33.43-2.24-30.1-4.51-60.2-6.8-90.78l3.52.54c0-.56.11-.85,0-.89-4-2.63-7.79-6.69-12.15-7.5-5.68-1-11.82.67-17.78.82-2.26,0-4.56-.93-8.07-1.72-2.12,2.07-5.65,2.89-10.53,2.13-4.72-.74-9.84,1.52-14.83,1.92-21,1.69-42,3.18-63,4.75L521.64,58c-.27-3-.51-5.74-.82-9.22l19.64-1.5c7-.55,14-1.15,21.07-1.67q47.28-3.47,94.57-6.87c11.12-.8,19.07,5.9,19.82,16.66.1,1.36-.8,2.78-1.41,4.68l1.5.58-3.43,2.2c6.94,2.15,3.92,7.47,4.63,11.26.86,4.5.81,9.17,1.15,13.77s.87,9.19.93,13.79c0,2-.88,4.05-1.49,6.59,5.2,1.59,1.25,4.43,0,6.33,1.17,1.65,2.5,2.71,2.73,4,1,5.6-.87,11.41,1.21,17a3.18,3.18,0,0,1-.78,2.84c-5.16,3.82-1.68,9.29-3.68,13.67l1.78.37c.64-3.93,1.28-7.86,1.91-11.7,3,4.32,2.64,12.6-.05,14.17,1.38,9.52,3.13,18.69,3.91,27.95.54,6.25-2.66,11.08-8.38,14.22-4.09,2.24-7.68,4.08-10.25-1.83-.24-.56-1.86-.53-3.81-1l2.5,4.82a6.79,6.79,0,0,1-1.12.56c-2-2.61-4,0-5.91.17-9,.71-17.94,1.85-26.93,2.53q-53.85,4-107.7,7.83c-2.36.17-4.78-.56-7.37-.9-2.07.59-4.52,1.72-7,1.93-21.9,1.76-43.82,3.35-66,5-.19-1.23-.36-2.27-.38-2.42l-7.74,4V213c-.44.09-.67.07-.75.16-7.6,8.7-18,3.57-27.06,5.31a130.66,130.66,0,0,1-29,2c-3.61-.13-6.56,1.47-9.87,1.2C365.71,221.46,363.38,220.88,359.78,220.26Z"/><path class="cls-1" d="M628.85,53.72c6.72-.49,13.44-1,20.16-1.46,8.87-.6,14.73,4.34,15.38,13.11q3.89,52.25,7.64,104.5c.8,11.38-3.79,16.11-15.23,16.95q-89.65,6.59-179.29,13.3Q403,205.64,328.45,211.07,229,218.41,129.54,225.83c-20.22,1.52-23.25-1.2-24.62-21.64-2.17-32.19-4.64-64.36-7.06-96.54-.67-8.91,4-15,12.75-15.61Q174,87.23,237.38,82.59q77.44-5.75,154.89-11.45,67.64-5,135.27-9.93ZM101.49,111.81h-.09q3.72,49.59,7.44,99.18c.72,9.56,4,12.74,13.43,12.09q39.54-2.73,79.05-5.69,132.89-9.84,265.77-19.72,95.48-7.06,191-14c7.68-.57,11.07-4.35,10.88-12.06,0-1.6-.16-3.19-.27-4.78q-3.64-49.34-7.28-98.67c-.73-10.14-4.08-13.3-14.11-12.58q-60.22,4.37-120.42,8.8Q443,70.53,359.22,76.74q-82.75,6.11-165.51,12.15-41.11,3-82.22,6.18c-7.39.57-10.69,4.51-10.32,12C101.25,108.63,101.38,110.22,101.49,111.81Z"/><path class="cls-1" d="M214.44,100.53c5.47-.39,10.21-1,14.92-.85,1.34.06,3.21,2.33,3.75,3.95,4.9,14.6,9.55,29.29,14.3,44a13.05,13.05,0,0,0,3.1,5.57c-1.27-18-2.54-36.07-3.86-54.89l11.86-1c.32,3.8.64,7.11.88,10.42,1.74,23.49,3.53,47,5.1,70.47.25,3.67-.52,7.4-.81,11.11a1.89,1.89,0,0,0,0,.53c.37,2,.74,3.89,1.12,5.84-3.83.29-7.7,1-11.46.64-1.24-.12-2.64-2.93-3.24-4.75-6.28-19-12.41-38.05-18.6-57.09a6.12,6.12,0,0,0-2.41-3.59c1.6,22.15,3.2,44.29,4.84,67L221.72,199C219.29,166.15,216.88,133.61,214.44,100.53Z"/><path class="cls-1" d="M472.65,137.32c-1.17-18.32-2.33-36.64-3.53-55.5L480.83,81q3.63,49.24,7.18,97.25c-.94.59-1.21.87-1.53.93-11.91,2.43-12.11,2.36-15.84-9-6.18-18.92-12.29-37.87-19.49-56.68,1.64,22.49,3.27,45,5,68.27l-12.26.91c-1.51-20.92-3-41.36-4.49-61.94l2.15-.14c-4.32-11.66-3.39-23.87-5.05-36.27,5.64-.49,10.55-1.23,15.45-1.11,1.21,0,2.89,2.66,3.47,4.39,5.28,15.79,10.36,31.65,15.51,47.48.26.8.6,1.57.91,2.36Z"/><path class="cls-1" d="M344.87,189.8c-2.51-33-5-65.4-7.48-98.46,9.57-.51,18.38-1.53,27.15-1.31,9.77.24,15.44,7.91,16,18.07.58,10.74,2.5,21.39,3.5,32.11.84,9,1.61,18,1.68,27,.09,13.22-6.35,20-19.45,21.15C359.25,189,352.22,189.33,344.87,189.8Zm12.42-15.45c12.13,1.68,15.33-1,14.6-12.4q-1.5-23.56-3.43-47.11c-.88-10.93-4.64-13.25-16.2-9.81C353.93,128.07,355.61,151.27,357.29,174.35Z"/><path class="cls-1" d="M209.52,166.83,210.81,178c1.47,12.9-5.8,22.55-18.25,24.24-12.1,1.65-22.22-5.54-23.54-18.23-2.06-19.89-3.28-39.88-4.42-59.86-.21-3.77-1.11-8.57,4.09-11,1-.45.14-3.94,1.17-5.15,9.49-11.14,29.79-7.62,34.54,6.14,1.7,4.92,2.11,10.33,2.74,15.56.74,6.15,1.1,12.35,1.56,18.53s.84,12.37,1.25,18.55Zm-13.47-2.91.18,0c-1-13.17-2.08-26.34-3.17-39.51-.12-1.4-.1-3.17-.91-4.07-1.76-2-4-4.83-6.06-4.81-2.42,0-5.11,2.39-7.13,4.31-2.7,2.56-.84,5.94-.62,9,1.28,17.14,2.55,34.27,4,51.4.46,5.59,3.38,8.59,7.64,8.46,4.6-.14,7.3-3.48,7.13-9.35C196.92,174.16,196.4,169,196.05,163.92Z"/><path class="cls-1" d="M577,172.72l-12.23.9c2.28-33.22,4.53-66,6.82-99.4l20.13-1.36c7.27,32.49,14.39,64.33,21.72,97.1-4.25.29-8.18.7-12.11.73-.79,0-1.88-1.34-2.29-2.3a26.08,26.08,0,0,1-1.12-4.63c-2.41-10.78-2.41-10.78-13.51-9.59-1.91.2-3.83.36-6,.56-.24,3-.5,6-.73,8.93C577.43,166.47,577.23,169.27,577,172.72Zm6.11-78.86-1.25,0c-.93,15.61-1.87,31.21-2.84,47.47l14-1.1Z"/><path class="cls-1" d="M158,137.72l-13.25,1.2c-.42-4.15-.67-8-1.22-11.73-.85-5.84-3.45-8.34-8-8s-7,3.17-6.63,9c.78,14,1.87,27.88,2.84,41.81.32,4.58.34,9.21,1,13.74,1,6.69,3.64,9.1,8.37,8.55,4.4-.51,6.56-3.74,6.42-9.92-.11-4.59-.45-9.18-.72-14.34,3.55-.35,7-.86,10.44-.88a3.56,3.56,0,0,1,2.47,2.46c.35,6.35,1,12.78.38,19.06-1.12,11.12-8.44,17.14-19.8,17.34s-18.83-5.6-20.29-16.78c-1.64-12.61-2.49-25.33-3.47-38-.67-8.65-1.53-17.34-1.28-26,.38-13.37,9-20.78,22.26-20,8.5.54,14.54,5,17,12.94C156.46,124.21,156.85,130.66,158,137.72Z"/><path class="cls-1" d="M406.34,128l19.33-1c.29,4.5.56,8.62.87,13.42l-19,1.71c.6,9,1.05,17.65,1.93,26.25.1,1,2.61,2.54,4,2.51,6.52-.14,13-.74,20.29-1.23.35,4.52.67,8.64,1.06,13.57l-37.93,2.93c-2.44-33-4.83-65.43-7.27-98.47l37.84-2.86c.37,4.55.71,8.81,1.11,13.7l-24.21,2C405,109.92,405.67,118.8,406.34,128Z"/><path class="cls-1" d="M286.08,139.13l18.26-.95c.22,4.33.44,8.46.69,13.26l-17.78,1.64c1,13.79,1.88,27,2.83,40.52l-13.49,1.14c-2.47-32.47-4.95-65.11-7.46-98.26L306,93.85c.39,4.84.72,9,1.09,13.57l-23,1.92C284.74,119.21,285.39,128.94,286.08,139.13Z"/><path class="cls-1" d="M522.66,176.62l-13.58,1.17c-2.11-28.24-4.19-56.07-6.32-84.5l-14.56.76c-.4-4.49-.78-8.78-1.22-13.61l43.13-3.2c.36,4.72.68,8.9,1,13.08l-14.47,2.09C518.62,120.16,520.61,148,522.66,176.62Z"/><path class="cls-1" d="M633.07,154.66l23-1.27c.36,4.36.72,8.65,1.13,13.59l-37.29,2.39c-.3-11.07-.43-22-1-32.94-.24-4.74-1.63-9.41-2-14.15-1.23-15-2.12-30-3.42-45-.39-4.62.56-7.11,5.76-6.64,2.23.2,4.53-.2,7.54-.37C628.87,98.39,630.94,126.21,633.07,154.66Z"/><path class="cls-1" d="M557.75,174.15l-13.69,1c-2.43-32.91-4.82-65.29-7.27-98.41l13.7-.88C552.92,108.75,555.3,141,557.75,174.15Z"/><path class="cls-1" d="M313.27,93.25l13.38-.64c2.53,32.87,5,65,7.51,97.88-3.93.34-7.42,1.14-10.74.7-1.34-.18-3.18-3-3.32-4.76-2.07-26-3.89-52-5.77-77.92C314,103.61,313.65,98.72,313.27,93.25Z"/></svg>